<svg xmlns="http://www.w3.org/2000/svg" viewBox="0 0 24 24" fill="none">
  <defs>
    <linearGradient id="contactsGrad" x1="4" y1="4" x2="20" y2="21" gradientUnits="userSpaceOnUse">
      <stop offset="0" stop-color="currentColor" stop-opacity="1" />
      <stop offset="1" stop-color="currentColor" stop-opacity="0.92" />
    </linearGradient>
    <radialGradient id="contactsLight" cx="0" cy="0" r="1" gradientUnits="userSpaceOnUse" gradientTransform="translate(12 9) rotate(90) scale(9 11)">
      <stop offset="0" stop-color="currentColor" stop-opacity="1" />
      <stop offset="1" stop-color="currentColor" stop-opacity="0.9" />
    </radialGradient>
    <filter id="contactsGlow" x="-30%" y="-30%" width="160%" height="160%">
      <feGaussianBlur in="SourceGraphic" stdDeviation="1.1" result="blur" />
      <feMerge>
        <feMergeNode in="blur" />
        <feMergeNode in="SourceGraphic" />
      </feMerge>
    </filter>
  </defs>
  <circle cx="12" cy="8" r="4" fill="url(#contactsLight)" opacity="0.92" />
  <path d="M4 20c0-4 4-6 8-6s8 2 8 6" fill="url(#contactsLight)" opacity="0.92" />
  <circle cx="12" cy="8" r="4" stroke="url(#contactsGrad)" stroke-width="2.6" opacity="0.95" filter="url(#contactsGlow)" />
  <path d="M4 20c0-4 4-6 8-6s8 2 8 6" stroke="url(#contactsGrad)" stroke-width="2.6" opacity="0.95" filter="url(#contactsGlow)" />
  <circle cx="12" cy="8" r="4" stroke="url(#contactsGrad)" stroke-width="2.2" opacity="0.96" />
  <path d="M4 20c0-4 4-6 8-6s8 2 8 6" stroke="url(#contactsGrad)" stroke-width="2.2" opacity="0.96" />
  <path d="M4 20c0-4 4-6 8-6s8 2 8 6" stroke="url(#contactsLight)" stroke-width="1.3" opacity="0.92" />
</svg>